<svg xmlns="http://www.w3.org/2000/svg" viewBox="0 0 900 640" role="img" aria-labelledby="title desc">
  <title id="title">دسته بیستوری شماره ۳</title>
  <desc id="desc">نمای شماتیک دسته بیستوری استیل شماره سه</desc>
  <defs>
    <linearGradient id="bg" x1="0" x2="1" y1="0" y2="1"><stop offset="0" stop-color="#f8fafc"/><stop offset="1" stop-color="#e8eef6"/></linearGradient>
    <linearGradient id="steel" x1="0" x2=".9"><stop offset="0" stop-color="#59636e"/><stop offset=".2" stop-color="#ffffff"/><stop offset=".48" stop-color="#a1abb5"/><stop offset=".78" stop-color="#f8fafc"/><stop offset="1" stop-color="#5d6874"/></linearGradient>
    <filter id="shadow" x="-20%" y="-20%" width="140%" height="140%"><feDropShadow dx="0" dy="18" stdDeviation="14" flood-color="#334155" flood-opacity=".2"/></filter>
  </defs>
  <rect width="900" height="640" rx="44" fill="url(#bg)"/>
  <ellipse cx="455" cy="500" rx="300" ry="38" fill="#94a3b8" opacity=".16"/>
  <g transform="rotate(-12 450 320)" filter="url(#shadow)">
    <path d="M185 304 C175 304 168 311 168 320 C168 329 175 336 185 336 L665 336 C695 336 724 327 750 310 L785 287 C798 278 814 287 813 302 L810 327 C809 340 798 350 785 350 L200 350 C181 350 166 335 166 316 C166 297 181 282 200 282 L610 282 C638 282 665 288 690 300 L720 314" fill="url(#steel)" stroke="#68737f" stroke-width="3"/>
    <rect x="250" y="294" width="310" height="44" rx="16" fill="none" stroke="#6f7a86" stroke-width="3"/>
    <g stroke="#717c87" stroke-width="3" opacity=".65">
      <path d="M280 295v42M305 295v42M330 295v42M355 295v42M380 295v42M405 295v42M430 295v42M455 295v42M480 295v42M505 295v42M530 295v42"/>
      <path d="M258 306h294M258 326h294"/>
    </g>
    <path d="M745 310l47-6" stroke="#48525d" stroke-width="5" stroke-linecap="round"/>
  </g>
</svg>
